<svg viewBox="0 0 24 24" xmlns="http://www.w3.org/2000/svg" id="Spa-Lotus--Streamline-Ultimate" height="24" width="24">
  <desc>
    Spa Lotus Streamline Icon: https://streamlinehq.com
  </desc>
  <path d="M11.248 14.878a8.1 8.1 0 0 1 -3 -6 7.917 7.917 0 0 1 2.485 -5.546 0.735 0.735 0 0 1 1.029 0 7.913 7.913 0 0 1 2.486 5.546 8.1 8.1 0 0 1 -3 6Z" fill="none" stroke="#000000" stroke-linecap="round" stroke-linejoin="round" stroke-width="1.5"></path>
  <path d="M14.168 7.828a8.557 8.557 0 0 1 4.86 -1.478 0.749 0.749 0 0 1 0.748 0.744 7.91 7.91 0 0 1 -2.164 5.663 8.1 8.1 0 0 1 -6.364 2.121" fill="none" stroke="#000000" stroke-linecap="round" stroke-linejoin="round" stroke-width="1.5"></path>
  <path d="M8.326 7.839a8.489 8.489 0 0 0 -4.9 -1.489 0.749 0.749 0 0 0 -0.749 0.744 7.912 7.912 0 0 0 2.165 5.663 8.181 8.181 0 0 0 6.407 2.121" fill="none" stroke="#000000" stroke-linecap="round" stroke-linejoin="round" stroke-width="1.5"></path>
  <path d="M4.1 11.877C2.133 12.716 0.748 14.25 0.748 15.628c0 2.9 5.037 5.25 11.25 5.25a21.67 21.67 0 0 0 6.75 -1.012v-3.488h4.383a2.521 2.521 0 0 0 0.117 -0.75c0 -1.716 -1.849 -3.275 -4.577 -4.233" fill="none" stroke="#000000" stroke-linecap="round" stroke-linejoin="round" stroke-width="1.5"></path>
</svg>