<svg xmlns="http://www.w3.org/2000/svg" viewBox="0 0 24 24" id="Spa-Lotus--Streamline-Ultimate" height="24" width="24">
  <desc>
    Spa Lotus Streamline Icon: https://streamlinehq.com
  </desc>
  <g>
    <path d="M21.77 15.86a8.78 8.78 0 0 1 -2 1.27 10.1 10.1 0 0 1 -4.31 0.89 13.82 13.82 0 0 1 -3.35 -0.42 0.49 0.49 0 0 0 -0.24 0 13.82 13.82 0 0 1 -3.34 0.4 10.1 10.1 0 0 1 -4.31 -0.89 8.78 8.78 0 0 1 -2 -1.27 0.5 0.5 0 0 0 -0.66 0A3 3 0 0 0 0.5 18c0 2.76 5.15 5 11.5 5a26.5 26.5 0 0 0 3.76 -0.27 0.51 0.51 0 0 0 0.36 -0.26 0.46 0.46 0 0 0 0 -0.44l-0.62 -1.43a0.5 0.5 0 0 1 0.63 -0.68L20 21.41a0.48 0.48 0 0 0 0.39 0c1.91 -0.89 3.08 -2.08 3.08 -3.4a3 3 0 0 0 -1.07 -2.11 0.5 0.5 0 0 0 -0.63 -0.04Z" fill="#000000" stroke-width="1"></path>
    <path d="M23.79 10a1 1 0 0 0 -0.62 -0.52 11.78 11.78 0 0 0 -1.4 -0.28 0.5 0.5 0 0 0 -0.56 0.38 9.85 9.85 0 0 1 -1.6 3.57A10.17 10.17 0 0 1 16.28 16a0.26 0.26 0 0 0 -0.12 0.29 0.25 0.25 0 0 0 0.27 0.17 8.11 8.11 0 0 0 2.72 -0.71 10.59 10.59 0 0 0 4.64 -4.94 1 1 0 0 0 0 -0.81Z" fill="#000000" stroke-width="1"></path>
    <path d="M4.85 15.77a8.11 8.11 0 0 0 2.72 0.71 0.25 0.25 0 0 0 0.27 -0.17 0.26 0.26 0 0 0 -0.12 -0.31 10.17 10.17 0 0 1 -3.33 -2.85 9.85 9.85 0 0 1 -1.6 -3.55 0.5 0.5 0 0 0 -0.56 -0.38 11.78 11.78 0 0 0 -1.4 0.28 1 1 0 0 0 -0.62 1.33 10.59 10.59 0 0 0 4.64 4.94Z" fill="#000000" stroke-width="1"></path>
    <path d="M17.05 8.25a12 12 0 0 1 -1.91 6.16 0.24 0.24 0 0 0 0 0.3 0.23 0.23 0 0 0 0.3 0 8.78 8.78 0 0 0 2.93 -2.47 10.52 10.52 0 0 0 1.67 -6.57 0.88 0.88 0 0 0 -0.36 -0.67 0.94 0.94 0 0 0 -0.79 -0.16 12.15 12.15 0 0 0 -1.8 0.62 0.48 0.48 0 0 0 -0.29 0.54 9.91 9.91 0 0 1 0.25 2.25Z" fill="#000000" stroke-width="1"></path>
    <path d="M8.53 14.76a0.23 0.23 0 0 0 0.3 0 0.24 0.24 0 0 0 0 -0.3A12 12 0 0 1 7 8.25 9.91 9.91 0 0 1 7.2 6a0.48 0.48 0 0 0 -0.29 -0.57 12.15 12.15 0 0 0 -1.8 -0.62 0.94 0.94 0 0 0 -0.79 0.19 0.88 0.88 0 0 0 -0.39 0.71 10.52 10.52 0 0 0 1.67 6.58 8.78 8.78 0 0 0 2.93 2.47Z" fill="#000000" stroke-width="1"></path>
    <path d="M12 15.78a0.52 0.52 0 0 0 0.36 -0.16c0.13 -0.13 3.19 -3.33 3.19 -7.37a11.54 11.54 0 0 0 -2.78 -6.89 1 1 0 0 0 -1.54 0 11.61 11.61 0 0 0 -2.78 6.9c0 4 3.06 7.24 3.19 7.37a0.48 0.48 0 0 0 0.36 0.15Z" fill="#000000" stroke-width="1"></path>
  </g>
</svg>