<svg xmlns="http://www.w3.org/2000/svg" viewBox="0 0 24 24" id="Vegetable-Artichoke--Streamline-Freehand" height="24" width="24">
  <desc>
    Vegetable Artichoke Streamline Icon: https://streamlinehq.com
  </desc>
  <g>
    <path d="M23.73 15c-0.15 -0.9 -0.55 -1.78 -0.75 -2.65a6 6 0 0 1 -0.17 -1.66 7.26 7.26 0 0 1 0.27 -1.67 0.5 0.5 0 0 0 -0.72 -0.58 15.17 15.17 0 0 0 -3.95 3.26A7.57 7.57 0 0 0 17.2 14a21.79 21.79 0 0 0 -2.85 -3.84 9.7 9.7 0 0 1 -1.78 -2.9 0.52 0.52 0 0 0 -0.46 -0.39 0.55 0.55 0 0 0 -0.53 0.29C10.49 9.35 8 11.4 6.75 13.69l0 0.05a7.82 7.82 0 0 0 -1.13 -2 14.69 14.69 0 0 0 -3.98 -3.29 0.52 0.52 0 0 0 -0.56 0A0.52 0.52 0 0 0 0.92 9a7.17 7.17 0 0 1 0.27 1.67A6 6 0 0 1 1 12.36C0.8 13.23 0.4 14.11 0.25 15a4.3 4.3 0 0 0 0 1.34 4.19 4.19 0 0 0 2.55 3.18 15.94 15.94 0 0 0 5.68 1l0.94 0a7.87 7.87 0 0 0 -0.17 1 2.8 2.8 0 0 0 0 0.5 4.38 4.38 0 0 0 0 0.51c0.06 0.4 0.15 0.78 0.24 1.18a0.32 0.32 0 0 0 0.34 0.31 0.32 0.32 0 0 0 0.31 -0.34c0.05 -0.4 0.11 -0.78 0.15 -1.18l0 -0.5a2.92 2.92 0 0 0 0 -0.51 8.6 8.6 0 0 0 -0.19 -0.88 10.28 10.28 0 0 0 3.32 0s0.08 0.06 0.13 0.06l0.63 0a8.3 8.3 0 0 0 -0.14 0.87 2.57 2.57 0 0 0 0 0.48 2.61 2.61 0 0 0 0.05 0.48c0.05 0.38 0.14 0.75 0.22 1.13a0.33 0.33 0 1 0 0.65 0c0.06 -0.38 0.13 -0.74 0.16 -1.13a2.57 2.57 0 0 0 0 -0.48 2.63 2.63 0 0 0 0 -0.49 6 6 0 0 0 -0.22 -0.86l0.64 0a15.72 15.72 0 0 0 5.68 -1 4.17 4.17 0 0 0 2.55 -3.18 4.23 4.23 0 0 0 -0.04 -1.49ZM3.22 18.65a3.21 3.21 0 0 1 -1.9 -2.48 3.52 3.52 0 0 1 0.11 -1.33c0.18 -0.75 0.49 -1.49 0.66 -2.23a6.72 6.72 0 0 0 0.17 -2 6.83 6.83 0 0 0 -0.09 -0.76A11.57 11.57 0 0 1 5 12.17a6.71 6.71 0 0 1 1.32 2.37 6.19 6.19 0 0 0 -0.45 2.82 3.09 3.09 0 0 0 1.58 2.3 12.13 12.13 0 0 1 -4.23 -1.01Zm7.89 1.23a6.83 6.83 0 0 1 -3.18 -1 2.09 2.09 0 0 1 -1 -1.58 5.54 5.54 0 0 1 0.8 -3.07c1.12 -2 3.06 -3.76 4.29 -5.68a13.09 13.09 0 0 0 1.65 2.19c1.22 1.36 2.65 2.72 3.22 4.23a3.49 3.49 0 0 1 -0.49 3.42c-0.99 1.21 -3.22 1.67 -5.29 1.49Zm11.57 -3.67a3.18 3.18 0 0 1 -1.9 2.47 14.28 14.28 0 0 1 -5.09 1.09 3.71 3.71 0 0 0 1.18 -1 4.07 4.07 0 0 0 0.73 -3.87 6.71 6.71 0 0 1 1.4 -2.7 13 13 0 0 1 2.85 -2.28 6.31 6.31 0 0 0 -0.09 0.76 6.68 6.68 0 0 0 0.17 2c0.17 0.74 0.48 1.48 0.66 2.24a3.49 3.49 0 0 1 0.09 1.29Z" fill="#000000" fill-rule="evenodd" stroke-width="1"></path>
    <path d="M8.6 4.88c0.52 0.59 1 1.19 1.5 1.82a7.38 7.38 0 0 1 0.54 0.71c0.33 0.4 0.75 0 0.61 -0.43 -0.18 -0.31 -0.28 -0.44 -0.47 -0.75q-0.54 -0.84 -1.14 -1.65C10.39 3.73 11.26 3 12 2.14c0.18 -0.19 0.35 -0.39 0.51 -0.59 0.23 0.35 0.46 0.7 0.71 1C13.8 3.33 14.4 4 15 4.73q-0.46 0.54 -0.9 1.11c-0.39 0.52 -0.66 0.87 -1 1.43 -0.21 0.34 0.07 0.76 0.42 0.55a12.5 12.5 0 0 1 0.89 -1c0.57 -0.66 1.18 -1.29 1.82 -1.9 0.32 0.46 0.64 0.92 1 1.37 0.44 0.62 0.9 1.23 1.32 1.87a15.86 15.86 0 0 1 1 1.64 0.38 0.38 0 0 0 0.7 -0.28A27.2 27.2 0 0 0 18.9 7c-0.33 -0.55 -0.67 -1.1 -1 -1.65s-0.73 -1 -1.11 -1.58a0.57 0.57 0 0 0 -0.4 -0.23 0.6 0.6 0 0 0 -0.44 0.16l-0.44 0.51c-0.38 -0.57 -0.77 -1.14 -1.14 -1.72a20.22 20.22 0 0 1 -1.29 -2.2 0.55 0.55 0 0 0 -0.95 0c-0.29 0.45 -0.63 0.87 -1 1.29 -0.52 0.66 -1.05 1.33 -1.55 2l-0.36 0.53 -0.22 -0.4a0.51 0.51 0 0 0 -0.41 -0.2 0.52 0.52 0 0 0 -0.42 0.19c-0.67 0.8 -1.35 1.61 -2 2.45 -0.82 1.13 -1.39 2 -2.12 3.2 -0.28 0.47 0.1 0.85 0.46 0.43Z" fill="#000000" fill-rule="evenodd" stroke-width="1"></path>
  </g>
</svg>