<svg xmlns="http://www.w3.org/2000/svg" viewBox="0 0 16 16" fill="#000000" id="Flower-Lotus--Streamline-Phosphor" height="16" width="16">
  <desc>
    Flower Lotus Streamline Icon: https://streamlinehq.com
  </desc>
  <path d="M15.7005125 8.10650625c-0.13469375 -0.23664375 -0.35885 -0.4092375 -0.62206875 -0.4789625 -0.4727125 -0.12168125 -0.96120625 -0.1706 -1.4486625 -0.1450625 0.261375 -1.29706875 0.06534375 -2.32295625 -0.13460625 -2.93130625 -0.1651375 -0.51778125 -0.696525 -0.825475 -1.2278 -0.71093125 -0.66491875 0.14808125 -1.2971625 0.41648125 -1.86555625 0.79195625 -0.41626875 -0.85035 -1.02234375 -1.59369375 -1.77145625 -2.1726625 -0.37289375 -0.27966875 -0.88561875 -0.27966875 -1.2585125 0 -0.749275 0.5788 -1.3553875 1.3221875 -1.7714625 2.1726625 -0.5683875 -0.375475 -1.20063125 -0.643875 -1.86555 -0.79195625 -0.531275 -0.11454375 -1.0626625 0.19315 -1.2278 0.71093125 -0.19603125 0.60835 -0.3920625 1.6335875 -0.1346125 2.93130625 -0.48745 -0.0255375 -0.97595 0.02338125 -1.4486625 0.1450625 -0.26321875 0.069725 -0.48736875 0.24231875 -0.62206875 0.4789625 -0.1409625 0.24241875 -0.17863125 0.53130625 -0.10455 0.80176875 0.22151875 0.8213625 0.90174375 2.383725 2.96201875 3.61479375s3.8702875 1.22714375 4.8452125 1.22714375 2.7882 0 4.83540625 -1.22714375c2.060275 -1.23106875 2.7405 -2.79343125 2.9620125 -3.61479375 0.07506875 -0.27003125 0.03858125 -0.5588875 -0.10128125 -0.8017625ZM3.5015625 4.87266875c0.00161875 -0.0067375 0.0082125 -0.01103125 0.01503125 -0.00980625 0.60800625 0.13735 1.18178125 0.39678125 1.68650625 0.7625625 -0.2298125 0.7518125 -0.34394375 1.53420625 -0.338475 2.3203375 0 1.2245375 0.24634375 2.221675 0.595275 3.02409375 -0.49605625 -0.49649375 -0.925275 -1.05553125 -1.27680625 -1.6629875 -1.1774875 -2.050475 -0.93245 -3.65923125 -0.68153125 -4.4342Zm0.19603125 6.75323125c-1.74270625 -1.0402625 -2.30793125 -2.31576875 -2.4922 -2.99206875 0.4808125 -0.118375 0.9797375 -0.14431875 1.47023125 -0.07645 0.16375 0.43863125 0.3637375 0.86286875 0.5978875 1.2683125 0.57493125 0.9912125 1.32814375 1.8676 2.221675 2.58498125 -0.6318375 -0.18165625 -1.23708125 -0.44550625 -1.80020625 -0.784775Zm4.3035125 0.974275c-0.60965625 -0.4534875 -2.0909875 -1.84464375 -2.0909875 -4.6544125 0 -2.77513125 1.46238125 -4.1774 2.0909875 -4.6504875 0.6286 0.47439375 2.0909875 1.8766625 2.0909875 4.65179375 0 2.8084625 -1.48133125 4.19961875 -2.0909875 4.65310625Zm2.798 -6.97475c0.50478125 -0.36555 1.07855625 -0.62475625 1.6865125 -0.76190625 0.00681875 -0.00123125 0.0134125 0.00306875 0.01503125 0.0098 0.25091875 0.77431875 0.49595625 2.383075 -0.68153125 4.43355 -0.351225 0.60825625 -0.7804625 1.16798125 -1.2768125 1.66494375 0.3489375 -0.80110625 0.59528125 -1.79955625 0.59528125 -3.0240875 0.00566875 -0.78679375 -0.10846875 -1.5698625 -0.33848125 -2.32230625Zm3.99770625 3.0097125c-0.181 0.66976875 -0.7449125 1.9478875 -2.488925 2.9907625 -0.5631625 0.33904375 -1.16840625 0.60266875 -1.8002125 0.784125 0.8935375 -0.7173875 1.64675 -1.593775 2.221675 -2.5849875 0.23415625 -0.40544375 0.43414375 -0.82968125 0.59789375 -1.2683125 0.49035625 -0.0675625 0.9890875 -0.041175 1.46956875 0.07775625Z" stroke-width="0.0625"></path>
</svg>