<svg xmlns="http://www.w3.org/2000/svg" viewBox="0 0 24 24" id="3-D-Drawing-3--Streamline-Ultimate" height="24" width="24">
  <desc>
    3 D Drawing 3 Streamline Icon: https://streamlinehq.com
  </desc>
  <path d="M17.21 13.4a0.25 0.25 0 0 1 0.16 -0.14 0.26 0.26 0 0 1 0.21 0 4.7 4.7 0 0 0 6.23 -0.79 0.76 0.76 0 0 0 0 -1 4.7 4.7 0 0 0 -6.23 -0.79 0.26 0.26 0 0 1 -0.21 0 0.25 0.25 0 0 1 -0.16 -0.14 2.84 2.84 0 0 1 -0.18 -0.54 0.31 0.31 0 0 1 0 -0.21 0.25 0.25 0 0 1 0.19 -0.09 4.75 4.75 0 0 0 4.58 -4.33 0.76 0.76 0 0 0 -0.59 -0.81 4.7 4.7 0 0 0 -2.5 0.11 4.77 4.77 0 0 0 -3 2.93 0.28 0.28 0 0 1 -0.15 0.15 0.22 0.22 0 0 1 -0.21 0 2.59 2.59 0 0 1 -0.47 -0.34 0.27 0.27 0 0 1 -0.08 -0.19 0.26 0.26 0 0 1 0.1 -0.19 4.82 4.82 0 0 0 1.84 -3.78 4.7 4.7 0 0 0 -0.62 -2.38 0.74 0.74 0 0 0 -0.94 -0.31 4.68 4.68 0 0 0 -2 1.57 4.79 4.79 0 0 0 -0.72 4.14 0.23 0.23 0 0 1 0 0.21 0.27 0.27 0 0 1 -0.18 0.11h-0.56a0.27 0.27 0 0 1 -0.18 -0.11 0.23 0.23 0 0 1 0 -0.21 4.79 4.79 0 0 0 -0.72 -4.14 4.68 4.68 0 0 0 -2 -1.57 0.74 0.74 0 0 0 -0.94 0.31 4.7 4.7 0 0 0 -0.67 2.42 4.82 4.82 0 0 0 1.84 3.78 0.26 0.26 0 0 1 0.1 0.19 0.27 0.27 0 0 1 -0.08 0.19 2.25 2.25 0 0 1 -0.47 0.34 0.22 0.22 0 0 1 -0.21 0 0.25 0.25 0 0 1 -0.15 -0.15 4.77 4.77 0 0 0 -3 -2.93 4.7 4.7 0 0 0 -2.5 -0.11 0.76 0.76 0 0 0 -0.59 0.81 4.75 4.75 0 0 0 4.58 4.35 0.28 0.28 0 0 1 0.19 0.09 0.31 0.31 0 0 1 0 0.21 2.84 2.84 0 0 1 -0.18 0.54 0.25 0.25 0 0 1 -0.16 0.14 0.26 0.26 0 0 1 -0.21 0 4.7 4.7 0 0 0 -6.23 0.79 0.76 0.76 0 0 0 0 1 4.7 4.7 0 0 0 6.23 0.79 0.26 0.26 0 0 1 0.21 0 0.25 0.25 0 0 1 0.16 0.14A2.53 2.53 0 0 1 7 14a0.29 0.29 0 0 1 0 0.2 0.3 0.3 0 0 1 -0.19 0.1 4.74 4.74 0 0 0 -4.58 4.32 0.76 0.76 0 0 0 0.59 0.81 4.74 4.74 0 0 0 2.5 -0.11 4.77 4.77 0 0 0 3 -2.93 0.25 0.25 0 0 1 0.15 -0.15 0.22 0.22 0 0 1 0.21 0 2.25 2.25 0 0 1 0.47 0.34 0.27 0.27 0 0 1 0.08 0.19 0.26 0.26 0 0 1 -0.1 0.19 4.82 4.82 0 0 0 -1.84 3.78 4.7 4.7 0 0 0 0.67 2.42 0.74 0.74 0 0 0 0.94 0.31 4.68 4.68 0 0 0 2 -1.57 4.79 4.79 0 0 0 0.72 -4.14 0.23 0.23 0 0 1 0 -0.21 0.27 0.27 0 0 1 0.18 -0.11 5.23 5.23 0 0 1 0.56 0 0.27 0.27 0 0 1 0.18 0.11 0.23 0.23 0 0 1 0 0.21 4.79 4.79 0 0 0 0.72 4.14 4 4 0 0 0 2.26 1.63 0.73 0.73 0 0 0 0.64 -0.37 4.7 4.7 0 0 0 0.67 -2.42A4.82 4.82 0 0 0 15 16.93a0.26 0.26 0 0 1 -0.1 -0.19 0.27 0.27 0 0 1 0.08 -0.19 2.59 2.59 0 0 1 0.47 -0.34 0.22 0.22 0 0 1 0.21 0 0.28 0.28 0 0 1 0.15 0.15 4.71 4.71 0 0 0 5.5 3 0.76 0.76 0 0 0 0.59 -0.81 4.74 4.74 0 0 0 -4.58 -4.32 0.3 0.3 0 0 1 -0.19 -0.1 0.29 0.29 0 0 1 0 -0.2 2.53 2.53 0 0 1 0.08 -0.53Zm2 -7.24a2.61 2.61 0 0 1 0.6 -0.16 0.25 0.25 0 0 1 0.23 0.1 0.23 0.23 0 0 1 0 0.25 3 3 0 0 1 -0.31 0.52 3.29 3.29 0 0 1 -2.23 1.34 0.28 0.28 0 0 1 -0.24 -0.1 0.27 0.27 0 0 1 0 -0.26 3.29 3.29 0 0 1 1.96 -1.69Zm-15 0.74a3 3 0 0 1 -0.31 -0.52 0.23 0.23 0 0 1 0 -0.25 0.25 0.25 0 0 1 0.29 -0.13 3 3 0 0 1 0.59 0.13 3.29 3.29 0 0 1 2 1.72 0.27 0.27 0 0 1 0 0.26 0.28 0.28 0 0 1 -0.24 0.1 3.29 3.29 0 0 1 -2.3 -1.31Zm17 4.64a2.78 2.78 0 0 1 0.56 0.24 0.26 0.26 0 0 1 0 0.44 2.78 2.78 0 0 1 -0.56 0.24 3.25 3.25 0 0 1 -2.59 -0.24 0.25 0.25 0 0 1 0 -0.44 3.25 3.25 0 0 1 2.64 -0.24ZM14.43 3a3.31 3.31 0 0 1 0.39 -0.45 0.26 0.26 0 0 1 0.25 -0.06 0.25 0.25 0 0 1 0.17 0.19 3.05 3.05 0 0 1 0.06 0.6 3.28 3.28 0 0 1 -1 2.4 0.23 0.23 0 0 1 -0.25 0.06 0.25 0.25 0 0 1 -0.17 -0.19A3.34 3.34 0 0 1 14.43 3Zm-5.67 -0.31a0.25 0.25 0 0 1 0.17 -0.19 0.29 0.29 0 0 1 0.25 0.06 3.35 3.35 0 0 1 1 3 0.27 0.27 0 0 1 -0.17 0.19 0.23 0.23 0 0 1 -0.25 -0.06 3.28 3.28 0 0 1 -1 -2.4 3.05 3.05 0 0 1 0 -0.6Zm-6 9.77a2.78 2.78 0 0 1 -0.56 -0.24 0.26 0.26 0 0 1 0 -0.44 2.78 2.78 0 0 1 0.56 -0.24 3.25 3.25 0 0 1 2.59 0.24 0.25 0.25 0 0 1 0 0.44 3.25 3.25 0 0 1 -2.61 0.24Zm2 5.38a2.49 2.49 0 0 1 -0.6 0.14 0.26 0.26 0 0 1 -0.23 -0.1 0.25 0.25 0 0 1 0 -0.25 2.54 2.54 0 0 1 0.31 -0.53 3.29 3.29 0 0 1 2.23 -1.34 0.28 0.28 0 0 1 0.24 0.1 0.27 0.27 0 0 1 0 0.26 3.29 3.29 0 0 1 -1.93 1.72ZM9.57 21a3.31 3.31 0 0 1 -0.39 0.45 0.29 0.29 0 0 1 -0.25 0.06 0.25 0.25 0 0 1 -0.17 -0.19 3.05 3.05 0 0 1 -0.06 -0.6 3.28 3.28 0 0 1 1 -2.4 0.23 0.23 0 0 1 0.25 -0.06 0.25 0.25 0 0 1 0.17 0.19A3.34 3.34 0 0 1 9.57 21Zm5.67 0.32a0.25 0.25 0 0 1 -0.17 0.19 0.29 0.29 0 0 1 -0.25 -0.06 3.35 3.35 0 0 1 -1 -3 0.25 0.25 0 0 1 0.17 -0.19 0.23 0.23 0 0 1 0.25 0.06 3.28 3.28 0 0 1 1 2.4 3.05 3.05 0 0 1 0 0.59ZM13.42 16a0.26 0.26 0 0 1 -0.25 0.08 4.77 4.77 0 0 0 -2.34 0 0.26 0.26 0 0 1 -0.25 -0.08 4.79 4.79 0 0 0 -1.89 -1.38 0.24 0.24 0 0 1 -0.15 -0.22 4.8 4.8 0 0 0 -0.73 -2.23 0.24 0.24 0 0 1 0 -0.26 5 5 0 0 0 0.5 -1.07 4.68 4.68 0 0 0 0.23 -1.16 0.24 0.24 0 0 1 0.15 -0.22 4.51 4.51 0 0 0 1 -0.57 4.4 4.4 0 0 0 0.89 -0.89 0.26 0.26 0 0 1 0.25 0 4.87 4.87 0 0 0 2.34 0 0.26 0.26 0 0 1 0.25 0.08 4.79 4.79 0 0 0 1.89 1.38 0.24 0.24 0 0 1 0.15 0.22 4.68 4.68 0 0 0 0.23 1.16 5 5 0 0 0 0.5 1.07 0.24 0.24 0 0 1 0 0.26 4.77 4.77 0 0 0 -0.73 2.23 0.24 0.24 0 0 1 -0.15 0.22A4.79 4.79 0 0 0 13.42 16Zm6.34 1.14a3.3 3.3 0 0 1 0.31 0.51 0.27 0.27 0 0 1 0 0.26 0.25 0.25 0 0 1 -0.23 0.1 4.16 4.16 0 0 1 -0.59 -0.13 3.29 3.29 0 0 1 -1.95 -1.72 0.27 0.27 0 0 1 0 -0.26 0.28 0.28 0 0 1 0.24 -0.1 3.29 3.29 0 0 1 2.22 1.3Z" fill="#000000" stroke-width="1"></path>
</svg>