<svg viewBox="0 0 24 24" xmlns="http://www.w3.org/2000/svg" id="3-D-Drawing-1--Streamline-Ultimate" height="24" width="24">
  <desc>
    3 D Drawing 1 Streamline Icon: https://streamlinehq.com
  </desc>
  <path d="M14.893 2.639a2 2 0 0 1 -0.1 3.189l-2.216 1.565a1 1 0 0 1 -1.154 0L9.209 5.828a2 2 0 0 1 -0.1 -3.189l2.263 -1.83a1 1 0 0 1 1.257 0Z" fill="none" stroke="#000000" stroke-linecap="round" stroke-linejoin="round" stroke-width="1"></path>
  <path d="M14.893 21.535a2 2 0 0 0 -0.1 -3.189l-2.214 -1.565a1 1 0 0 0 -1.154 0l-2.216 1.565a2 2 0 0 0 -0.1 3.189l2.265 1.83a1 1 0 0 0 1.257 0Z" fill="none" stroke="#000000" stroke-linecap="round" stroke-linejoin="round" stroke-width="1"></path>
  <path d="M8.787 2.743a2 2 0 0 1 1.792 2.64L9.708 7.95a1 1 0 0 1 -0.934 0.679l-2.711 0.035a2 2 0 0 1 -1.957 -2.52l0.757 -2.812a1 1 0 0 1 1.017 -0.738Z" fill="none" stroke="#000000" stroke-linecap="round" stroke-linejoin="round" stroke-width="1"></path>
  <path d="M19.894 18.03a2 2 0 0 0 -1.957 -2.52l-2.711 0.035a1 1 0 0 0 -0.934 0.679l-0.871 2.567a2 2 0 0 0 1.792 2.64l2.907 0.149a1 1 0 0 0 1.017 -0.739Z" fill="none" stroke="#000000" stroke-linecap="round" stroke-linejoin="round" stroke-width="1"></path>
  <path d="M3.909 6.416a2 2 0 0 1 3 1.083l0.8 2.588a1 1 0 0 1 -0.357 1.1l-2.167 1.62a2 2 0 0 1 -3.064 -0.888L1.08 9.2A1 1 0 0 1 1.468 8Z" fill="none" stroke="#000000" stroke-linecap="round" stroke-linejoin="round" stroke-width="1"></path>
  <path d="M21.879 12.255a2 2 0 0 0 -3.064 -0.888l-2.172 1.621a1 1 0 0 0 -0.357 1.1l0.8 2.588a2 2 0 0 0 3 1.083l2.441 -1.588a1 1 0 0 0 0.388 -1.2Z" fill="none" stroke="#000000" stroke-linecap="round" stroke-linejoin="round" stroke-width="1"></path>
  <path d="M2.121 12.255a2 2 0 0 1 3.064 -0.888l2.172 1.621a1 1 0 0 1 0.357 1.1l-0.8 2.588a2 2 0 0 1 -3 1.083L1.468 16.17a1 1 0 0 1 -0.388 -1.2Z" fill="none" stroke="#000000" stroke-linecap="round" stroke-linejoin="round" stroke-width="1"></path>
  <path d="M20.091 6.416a2 2 0 0 0 -3 1.083l-0.8 2.588a1 1 0 0 0 0.357 1.1l2.172 1.621a2 2 0 0 0 3.064 -0.888L22.92 9.2a1 1 0 0 0 -0.388 -1.2Z" fill="none" stroke="#000000" stroke-linecap="round" stroke-linejoin="round" stroke-width="1"></path>
  <path d="M4.106 18.03a2 2 0 0 1 1.957 -2.52l2.711 0.035a1 1 0 0 1 0.934 0.679l0.871 2.567a2 2 0 0 1 -1.792 2.64l-2.907 0.149a1 1 0 0 1 -1.017 -0.739Z" fill="none" stroke="#000000" stroke-linecap="round" stroke-linejoin="round" stroke-width="1"></path>
  <path d="M15.213 2.743a2 2 0 0 0 -1.792 2.64l0.871 2.567a1 1 0 0 0 0.934 0.679l2.711 0.035a2 2 0 0 0 1.957 -2.52l-0.757 -2.812a1 1 0 0 0 -1.017 -0.738Z" fill="none" stroke="#000000" stroke-linecap="round" stroke-linejoin="round" stroke-width="1"></path>
</svg>