<svg viewBox="0 0 24 24" xmlns="http://www.w3.org/2000/svg" id="3-D-Drawing--Streamline-Ultimate" height="24" width="24">
  <desc>
    3 D Drawing Streamline Icon: https://streamlinehq.com
  </desc>
  <path d="M14.393 2.472a4.419 4.419 0 0 1 0 6.248 3.314 3.314 0 0 1 -4.686 0 4.419 4.419 0 0 1 0 -6.248L11.269 0.91a1.105 1.105 0 0 1 1.562 0Z" fill="none" stroke="#000000" stroke-linecap="round" stroke-linejoin="round" stroke-width="1"></path>
  <path d="M8.319 2.923a4.419 4.419 0 0 1 3.673 5.055A3.314 3.314 0 0 1 8.2 10.732a4.418 4.418 0 0 1 -3.671 -5.055L4.874 3.5a1.1 1.1 0 0 1 1.264 -0.918Z" fill="none" stroke="#000000" stroke-linecap="round" stroke-linejoin="round" stroke-width="1"></path>
  <path d="M3.671 6.858a4.417 4.417 0 0 1 5.942 1.93 3.314 3.314 0 0 1 -1.448 4.457 4.419 4.419 0 0 1 -5.942 -1.931l-1 -1.968A1.1 1.1 0 0 1 1.7 7.86Z" fill="none" stroke="#000000" stroke-linecap="round" stroke-linejoin="round" stroke-width="1"></path>
  <path d="M2.223 12.773a4.419 4.419 0 0 1 5.942 -1.931A3.314 3.314 0 0 1 9.613 15.3a4.417 4.417 0 0 1 -5.942 1.93l-1.968 -1a1.1 1.1 0 0 1 -0.483 -1.486Z" fill="none" stroke="#000000" stroke-linecap="round" stroke-linejoin="round" stroke-width="1"></path>
  <path d="M4.528 18.41A4.419 4.419 0 0 1 8.2 13.355a3.314 3.314 0 0 1 3.791 2.754 4.419 4.419 0 0 1 -3.673 5.055l-2.181 0.345a1.1 1.1 0 0 1 -1.264 -0.918Z" fill="none" stroke="#000000" stroke-linecap="round" stroke-linejoin="round" stroke-width="1"></path>
  <path d="M9.707 21.615a4.419 4.419 0 0 1 0 -6.248 3.314 3.314 0 0 1 4.686 0 4.419 4.419 0 0 1 0 6.248l-1.562 1.562a1.105 1.105 0 0 1 -1.562 0Z" fill="none" stroke="#000000" stroke-linecap="round" stroke-linejoin="round" stroke-width="1"></path>
  <path d="M15.78 21.164a4.418 4.418 0 0 1 -3.672 -5.055 3.313 3.313 0 0 1 3.792 -2.754 4.419 4.419 0 0 1 3.672 5.055l-0.346 2.181a1.1 1.1 0 0 1 -1.263 0.919Z" fill="none" stroke="#000000" stroke-linecap="round" stroke-linejoin="round" stroke-width="1"></path>
  <path d="M20.429 17.23a4.42 4.42 0 0 1 -5.943 -1.93 3.315 3.315 0 0 1 1.448 -4.457 4.42 4.42 0 0 1 5.943 1.931l1 1.968a1.105 1.105 0 0 1 -0.482 1.486Z" fill="none" stroke="#000000" stroke-linecap="round" stroke-linejoin="round" stroke-width="1"></path>
  <path d="M21.877 11.314a4.418 4.418 0 0 1 -5.942 1.931 3.313 3.313 0 0 1 -1.448 -4.457 4.417 4.417 0 0 1 5.942 -1.93l1.968 1a1.1 1.1 0 0 1 0.482 1.485Z" fill="none" stroke="#000000" stroke-linecap="round" stroke-linejoin="round" stroke-width="1"></path>
  <path d="M19.571 5.678a4.417 4.417 0 0 1 -3.671 5.054 3.313 3.313 0 0 1 -3.791 -2.754 4.418 4.418 0 0 1 3.671 -5.055l2.182 -0.345a1.1 1.1 0 0 1 1.264 0.918Z" fill="none" stroke="#000000" stroke-linecap="round" stroke-linejoin="round" stroke-width="1"></path>
</svg>